<?xml version="1.0" standalone="no"?><!DOCTYPE svg PUBLIC "-//W3C//DTD SVG 1.1//EN" "http://www.w3.org/Graphics/SVG/1.1/DTD/svg11.dtd"><svg t="1502883658124" class="icon" style="" viewBox="0 0 1024 1024" version="1.1" xmlns="http://www.w3.org/2000/svg" p-id="1001" xmlns:xlink="http://www.w3.org/1999/xlink" width="200" height="200"><defs><style type="text/css"></style></defs><path d="M0 320.064l1024 0 0 319.936-1024 0 0-319.936Z" p-id="1002" fill="#1296db"></path><path d="M192 703.936l640 0 0 64.064-640 0 0-64.064Z" p-id="1003" fill="#1296db"></path><path d="M192 832l640 0 0 64-640 0 0-64Z" p-id="1004" fill="#1296db"></path><path d="M192 960l640 0 0 64-640 0 0-64Z" p-id="1005" fill="#1296db"></path><path d="M128 1024 128 1024c-70.72 0-128-57.28-128-128L0 128c0-70.72 57.28-128 128-128L128 1024z" p-id="1006" fill="#1296db"></path><path d="M192 0l192 0 0 256-192 0 0-256Z" p-id="1007" fill="#1296db"></path><path d="M896 1024 896 1024 896 0c70.72 0 128 57.28 128 128l0 768C1024 966.72 966.72 1024 896 1024" p-id="1008" fill="#1296db"></path></svg>